<svg xmlns="http://www.w3.org/2000/svg" xmlns:xlink="http://www.w3.org/1999/xlink" fill="none" version="1.1" width="1719.5732421875" height="538.162109375" viewBox="0 0 1719.5732421875 538.162109375"><defs><linearGradient x1="0.5" y1="0" x2="0.5" y2="1" id="master_svg0_1_403"><stop offset="0%" stop-color="#F91212" stop-opacity="1"/><stop offset="100%" stop-color="#FF8B0D" stop-opacity="1"/></linearGradient></defs><g><g><path d="M256.635,40.7144C290.021,16.2304,302.431,7.17835,313.617,3.5653C344.22,-6.31876,382.754,4.82559,401.325,31.0802C408.11,40.6716,412.617,55.344,424.648,94.8999L420.466,81.149C424.479,94.3435,426.206,99.9961,428.054,104.363L467.611,104.363L468.31,102.097C470.249,95.8066,476.062,91.5155,482.645,91.5155L574.706,91.5155C581.382,91.5155,586.144,97.9873,584.159,104.361L703.527,104.361Q703.744,104.361,703.961,104.363L861.841,104.363L863.01,100.167C864.817,93.6803,870.726,89.1926,877.46,89.1926L958.489,89.1926C966.449,89.1926,972.24,96.6978,970.283,104.363L1067.19,104.363L1067.82,101.238C1069.23,94.2325,1075.38,89.1926,1082.53,89.1926L1176.63,89.1926Q1185.64,89.1926,1193.91,92.7029Q1201.87,96.0804,1207.99,102.217Q1209.03,103.263,1209.99,104.363L1225.93,104.363L1228.25,98.6021C1230.53,92.9176,1236.04,89.1926,1242.17,89.1926L1319.49,89.1926Q1326.19,89.1926,1332.59,91.1767Q1338.74,93.0811,1344.13,96.6648Q1349.04,99.9337,1352.97,104.363L1504.88,104.363L1505.99,100.267C1507.76,93.7304,1513.69,89.1926,1520.46,89.1926L1598.82,89.1926C1606.86,89.1926,1612.77,96.6147,1611.11,104.363L1693.58,104.363L1693.58,109.009Q1700.91,112.334,1706.63,118.072Q1712.74,124.199,1716.09,132.16Q1719.57,140.415,1719.57,149.402L1719.57,216.699C1719.57,224.983,1712.86,231.699,1704.57,231.699L1699.04,231.699L1699.04,246.75L1705.2,256.969C1714.6,272.557,1719.57,290.417,1719.57,308.622L1719.57,391.947Q1719.57,400.935,1716.09,409.189Q1712.74,417.15,1706.63,423.277Q1700.52,429.414,1692.56,432.791Q1684.29,436.302,1675.27,436.302C1473.62,436.302,1272.5,437.829,1070.82,437.932C1056.96,437.939,1043.25,435.055,1030.56,429.474L1020.44,425.022L892.41,425.022L889.892,426.277Q878.356,432.028,865.808,434.983Q853.26,437.937,840.369,437.937L658.119,437.937C650.335,437.937,644.252,432.122,643.253,425.022L486.99,425.022C487.044,430.09,486.729,434.064,486.012,437.657C479.574,469.91,452.505,493.968,419.72,496.576C408.24,497.49,393.5,494.019,353.348,484.565L367.893,487.99C352.434,484.35,347.191,483.115,342.052,482.645C327.697,481.334,313.272,484.269,300.571,491.087C296.128,493.472,291.879,496.568,279.737,505.473L290.534,497.555C257.467,521.806,245.339,530.7,234.462,534.345C203.406,544.752,169.21,533.368,150.589,506.422C144.138,497.087,139.785,482.906,128.142,444.626L131.872,456.891C127.323,441.934,125.762,436.819,123.6,432.171C117.52,419.101,107.734,408.105,95.4566,400.551C91.0614,397.846,86.125,395.692,71.5688,389.339L85.264,395.316C47.4573,378.817,33.5786,372.76,24.9371,365.148C0.257063,343.409,-6.98983,307.927,7.18924,278.251C12.1539,267.86,22.5461,256.846,50.8552,226.844L39.8544,238.503C50.7911,226.912,54.5078,222.971,57.5021,218.734C65.8807,206.881,70.5641,192.813,70.9626,178.302C71.103,173.189,70.5091,167.885,68.7607,152.562L70.5026,167.827C65.8259,126.843,64.1091,111.798,66.3633,100.505C72.8011,68.2515,99.8697,44.1934,132.655,41.5852C144.109,40.674,158.808,44.1269,198.756,53.533L184.482,50.172C199.941,53.812,205.184,55.0464,210.323,55.5161C224.678,56.8281,234.044,53.8926,246.744,47.0744C251.203,44.6807,255.466,41.5713,267.707,32.594L256.635,40.7144Z" fill-rule="evenodd" fill="url(#master_svg0_1_403)" fill-opacity="1"/></g><g><path d="M308.73527734375,133.3140490234375L308.73527734375,117.9798580234375L358.90627734375,117.9798580234375L358.90627734375,133.3140490234375L421.00127734375,133.3140490234375C431.24627734375,133.3140490234375,439.55127734375,141.6194490234375,439.55127734375,151.8645490234375L439.55127734375,336.7937490234375L358.90627734375,336.7937490234375L358.90627734375,407.3907490234375L308.73527734375,407.3907490234375L308.73527734375,336.7937490234375L230.01327734375002,336.7937490234375L230.01327734375002,312.6877490234375L194.71277734375002,312.6877490234375L194.71277734375002,407.3907490234375L144.68677734375,381.5917490234375L144.68677734375,312.6877490234375L109.13427734375,312.6877490234375L137.76527734375,223.96274902343748L109.44842034375,223.96274902343748L109.44842034375,181.4879490234375L198.44657734375,181.4879490234375C204.53897734375,181.4879490234375,208.87107734375002,187.4143490234375,207.02207734375,193.2193490234375L197.22967734374998,223.96274902343748L230.01327734375002,289.5297490234375L230.01327734375002,133.3140490234375L308.73527734375,133.3140490234375ZM148.30907734375,166.6605490234375L126.76167734375,123.7857690234375L193.16227734375002,123.7857690234375L193.16227734375002,166.6605490234375L148.30907734375,166.6605490234375ZM323.40627734375,175.95594902343748L280.44427734375,175.95594902343748L280.44427734375,222.3477490234375L308.20927734375,222.3477490234375L323.40627734375,175.95594902343748ZM280.44427734375,265.4787490234375L280.44427734375,294.3297490234375L305.70227734375,294.3297490234375L315.15327734375,265.4787490234375L280.44427734375,265.4787490234375ZM355.94927734375,294.3297490234375L388.93727734375,294.3297490234375L388.93727734375,265.4787490234375L365.40127734375,265.4787490234375L355.94927734375,294.3297490234375ZM388.93727734375,222.3477490234375L388.93727734375,175.95594902343748L373.65327734375,175.95594902343748L358.45627734375,222.3477490234375L388.93727734375,222.3477490234375ZM475.25127734375,174.6256490234375L665.02927734375,174.6256490234375L665.02927734375,231.3927490234375L714.33827734375,231.3927490234375L714.33827734375,143.1718490234375C714.33827734375,137.2010490234375,709.49727734375,132.3607490234375,703.52727734375,132.3607490234375L546.10727734375,132.3607490234375L550.10927734375,119.5154990234375L492.24027734375,119.5154990234375L475.25127734375,174.6256490234375ZM469.08227734375,288.5747490234375L697.80927734375,288.5747490234375L697.80927734375,367.02774902343754L688.23327734375,367.02774902343754L675.52627734375,409.9367490234375L736.35327734375,409.9367490234375C742.32427734375,409.9367490234375,747.16527734375,405.0967490234375,747.16527734375,399.1257490234375L747.16527734375,255.9237490234375C747.16527734375,249.9537490234375,742.32427734375,245.11274902343752,736.35327734375,245.11274902343752L539.75327734375,245.11274902343752L556.37427734375,196.3104490234375L499.05427734375,196.3104490234375L469.08227734375,288.5747490234375ZM574.36527734375,197.2313490234375L591.71927734375,231.2307490234375L647.32127734375,231.2307490234375L629.37227734375,197.2313490234375L574.36527734375,197.2313490234375ZM457.38027734375,374.5637490234375L667.29627734375,374.5637490234375C672.18127734375,374.5637490234375,676.14127734375,370.6037490234375,676.14127734375,365.7187490234375L676.14127734375,314.3177490234375L626.60527734375,314.3177490234375L626.60527734375,332.2577490234375L605.72027734375,332.2577490234375L613.2172773437501,308.1587490234375L555.64827734375,308.1587490234375L548.4192773437501,332.2577490234375L528.06927734375,332.2577490234375L533.69227734375,314.3177490234375L477.19427734375,314.3177490234375L457.38027734375,374.5637490234375ZM783.46527734375,132.6279490234375L883.03327734375,132.6280490234375L887.33327734375,117.1927490234375L937.64527734375,117.1927490234375L933.34427734375,132.6280490234375L1038.39227734375,132.6279490234375C1047.39427734375,132.6279490234375,1054.69227734375,139.9501490234375,1054.69227734375,148.9824490234375L1054.69227734375,203.9332490234375L1012.31227734375,203.9332490234375L1012.31227734375,173.8411490234375L814.43527734375,173.8411490234375L806.28527734375,203.9332490234375L763.90627734375,203.9332490234375L783.46527734375,132.6279490234375ZM1421.77427734375,133.0480490234375L1526.10427734375,133.0480490234375L1530.40427734375,117.1927490234375L1578.64427734375,117.1927490234375L1574.34427734375,133.0480490234375L1675.27427734375,133.0480490234375C1684.27427734375,133.0480490234375,1691.57427734375,140.3702490234375,1691.57427734375,149.4025490234375L1691.57427734375,203.69924902343752L1671.03427734375,203.69924902343752L1671.03427734375,226.4407490234375L1477.92427734375,226.4407490234375L1471.67427734375,248.6827490234375L1624.41427734375,248.6827490234375L1619.85427734375,238.86974902343752L1661.58427734375,238.86974902343752L1691.57427734375,288.5867490234375L1575.52427734375,288.5867490234375L1575.52427734375,308.2127490234375L1691.57427734375,308.2127490234375L1691.57427734375,348.1177490234375L1575.52427734375,348.1177490234375L1575.52427734375,368.0697490234375L1691.57427734375,368.0697490234375L1691.57427734375,391.9467490234375C1691.57427734375,400.9797490234375,1684.27427734375,408.3017490234375,1675.27427734375,408.3017490234375L1412.19427734375,408.3017490234375L1421.97427734375,368.0697490234375L1532.48427734375,368.0697490234375L1532.48427734375,348.1177490234375L1422.30427734375,348.1177490234375L1432.08427734375,308.2127490234375L1532.48427734375,308.2127490234375L1532.48427734375,288.5867490234375L1421.44427734375,288.5867490234375L1436.97427734375,226.4407490234375L1443.49427734375,203.69924902343752L1403.39427734375,203.69924902343752L1421.77427734375,133.0480490234375ZM1199.77427734375,186.86264902343748Q1233.35427734375,161.0226490234375,1250.95427734375,117.1927490234375L1319.49427734375,117.1927490234375C1326.14427734375,117.1927490234375,1332.05427734375,121.2555990234375,1334.87427734375,127.2965490234375Q1352.06427734375,164.0749490234375,1381.67427734375,186.86264902343748L1381.67427734375,237.2347490234375Q1359.18427734375,223.1697490234375,1342.88427734375,206.81494902343752L1334.73427734375,237.5617490234375L1230.41427734375,237.5617490234375L1238.56427734375,206.81494902343752Q1222.26427734375,223.1697490234375,1199.77427734375,237.2347490234375L1199.77427734375,186.86264902343748ZM1085.02527734375,157.7517490234375L1153.15427734375,157.7517490234375L1153.15427734375,225.5177490234375L1192.92427734375,225.5177490234375L1192.92427734375,133.5471490234375C1192.92427734375,124.5148690234375,1185.63427734375,117.1927490234375,1176.62427734375,117.1927490234375L1093.17427734375,117.1927490234375L1085.02527734375,157.7517490234375ZM1118.92427734375,241.81374902343748L1131.91427734375,177.7042490234375L1097.5062773437498,177.7042490234375L1077.85327734375,280.7367490234375L1157.72427734375,280.7367490234375L1157.72427734375,371.6677490234375L1127.40427734375,371.6677490234375L1117.62427734375,409.9367490234375L1180.54427734375,409.9367490234375C1189.54427734375,409.9367490234375,1196.84427734375,402.6147490234375,1196.84427734375,393.5827490234375L1196.84427734375,258.1677490234375C1196.84427734375,249.1357490234375,1189.54427734375,241.81374902343748,1180.54427734375,241.81374902343748L1118.92427734375,241.81374902343748ZM1334.08427734375,197.6565490234375Q1317.78427734375,178.6854490234375,1307.02427734375,158.0788490234375L1274.42427734375,158.0788490234375Q1263.66427734375,178.6854490234375,1247.37427734375,197.6565490234375L1334.08427734375,197.6565490234375ZM1649.19427734375,192.2511490234375L1649.19427734375,173.6070490234375L1452.15427734375,173.6070490234375L1445.77427734375,192.2511490234375L1649.19427734375,192.2511490234375ZM774.01227734375,290.54974902343747L931.46727734375,290.54974902343747L931.46727734375,184.5730490234375L973.19427734375,184.5730490234375L973.19427734375,290.54974902343747L1057.62627734375,290.54974902343747L1046.2162773437499,331.7627490234375L974.49727734375,331.7627490234375L1055.67027734375,364.1887490234375L1055.67027734375,409.9367490234375L951.67827734375,364.1887490234375L877.40027734375,401.2187490234375C865.89827734375,406.9527490234375,853.22127734375,409.9367490234375,840.36927734375,409.9367490234375L769.77427734375,409.9367490234375L780.40427734375,368.4547490234375L851.84927734375,368.4547490234375L924.29427734375,331.7627490234375L764.23227734375,331.7627490234375L774.01227734375,290.54974902343747ZM827.47427734375,185.8813490234375L919.73127734375,210.7400490234375L919.73127734375,247.3737490234375L827.47427734375,222.1877490234375L827.47427734375,185.8813490234375ZM783.14027734375,227.42174902343748L875.39527734375,252.2807490234375L875.39527734375,288.5867490234375L783.14027734375,263.7287490234375L783.14027734375,227.42174902343748ZM1206.62427734375,367.7427490234375L1316.15427734375,367.7427490234375L1342.88427734375,258.4947490234375L1379.39427734375,258.4947490234375L1352.66427734375,367.7427490234375L1384.61427734375,367.7427490234375L1384.61427734375,392.6017490234375C1384.61427734375,401.6337490234375,1377.31427734375,408.9557490234375,1368.31427734375,408.9557490234375L1206.62427734375,408.9557490234375L1206.62427734375,367.7427490234375ZM1247.37427734375,258.4947490234375L1257.14427734375,350.0797490234375L1220.63427734375,350.0797490234375L1210.85427734375,258.4947490234375L1247.37427734375,258.4947490234375ZM1310.61427734375,258.4947490234375L1310.61427734375,350.0797490234375L1274.10427734375,350.0797490234375L1274.10427734375,258.4947490234375L1310.61427734375,258.4947490234375ZM1081.7652773437499,305.5957490234375L1148.26427734375,305.5957490234375L1138.48427734375,345.8277490234375L1071.98527734375,345.8277490234375L1081.7652773437499,305.5957490234375Z" fill-rule="evenodd" fill="#FFFFFF" fill-opacity="1"/></g></g></svg>